<?xml version="1.0" encoding="utf-8"?>
<!-- Generator: Adobe Illustrator 16.0.0, SVG Export Plug-In . SVG Version: 6.00 Build 0)  -->
<!DOCTYPE svg PUBLIC "-//W3C//DTD SVG 1.1//EN" "http://www.w3.org/Graphics/SVG/1.1/DTD/svg11.dtd">
<svg version="1.1" id="Layer_1" xmlns="http://www.w3.org/2000/svg" xmlns:xlink="http://www.w3.org/1999/xlink" x="0px" y="0px"
	 width="275.529px" height="312.318px" viewBox="0 0 275.529 312.318" enable-background="new 0 0 275.529 312.318"
	 xml:space="preserve">
<g>
	<g>
		<path fill="#C2BCDD" d="M224.178,231.133c9.228-11,23.723-14.428,34.408-8.851c5.166-14.519,7.943-30.548,7.943-47.729
			c0-39.839-18.995-83.779-45.861-116.376c4.739,15.252,7.408,30.738,7.408,45.65c0,22.685-4.832,43.369-13.635,61.209
			c10.393,13.128,9.297,33.809-3.507,49.069c-14.372,17.131-38.04,20.936-52.865,8.498c-0.628-0.527-1.222-1.082-1.798-1.649
			c-15.776,7.053-33.622,11.098-52.994,11.583c1.027,14.62-5.237,28.401-17.475,35.123c-17.667,9.705-41.08,1.021-52.295-19.394
			c-6.156-11.208-7.346-23.618-4.253-34.142c-6.44-3.872-12.446-8.3-17.964-13.243c10.938,61.206,60.172,102.436,126.473,102.436
			c35.465,0,66.047-11.798,88.498-32.138c-0.507-0.356-1.007-0.726-1.488-1.13C213.996,261.01,213.729,243.586,224.178,231.133z
			 M168.587,269.054c-5.089,6.066-13.472,7.414-18.722,3.01c-5.25-4.405-5.38-12.894-0.29-18.96
			c5.09-6.067,13.472-7.414,18.722-3.01S173.678,262.987,168.587,269.054z"/>
		<path fill="#D6D3E9" d="M45.192,193.73c17.667-9.705,41.08-1.022,52.295,19.394c3.446,6.274,5.334,12.927,5.79,19.414
			c19.372-0.485,37.218-4.53,52.994-11.583c-13.021-12.815-12.784-35.483,0.979-51.889c14.371-17.131,38.041-20.936,52.865-8.498
			c1.617,1.357,3.054,2.86,4.326,4.469c8.803-17.84,13.635-38.524,13.635-61.209c0-14.912-2.669-30.398-7.408-45.65
			C196.674,29.065,166.402,9,137.764,9C77.061,9,9,99.135,9,174.554c0,9.119,0.787,17.911,2.291,26.329
			c5.518,4.943,11.523,9.371,17.964,13.243C31.797,205.48,37.225,198.107,45.192,193.73z M88.078,143.896
			c8.199-9.773,21.703-11.944,30.16-4.849s8.667,20.771,0.468,30.544s-21.703,11.944-30.161,4.849
			C80.088,167.344,79.879,153.669,88.078,143.896z"/>
		<path fill="#6173A4" d="M156.271,220.955c0.576,0.567,1.17,1.122,1.798,1.649c14.825,12.438,38.493,8.633,52.865-8.498
			c12.804-15.261,13.899-35.941,3.507-49.069C202.094,190.066,181.921,209.488,156.271,220.955z"/>
		<path fill="#7080AC" d="M210.115,160.568c-14.824-12.438-38.494-8.633-52.865,8.498c-13.763,16.405-14,39.073-0.979,51.889
			c25.649-11.467,45.822-30.889,58.17-55.918C213.169,163.429,211.732,161.926,210.115,160.568z"/>
		
			<ellipse transform="matrix(-0.6427 0.7661 -0.7661 -0.6427 289.9243 178.2791)" fill="#7080AC" cx="103.392" cy="156.743" rx="23.099" ry="19.99"/>
		<path fill="#6173A4" d="M226.262,271.181c0.026,0.02,0.053,0.042,0.08,0.061c14.436-13.058,25.508-29.647,32.369-48.9
			c-0.041-0.021-0.084-0.037-0.125-0.059C251.737,241.53,240.68,258.119,226.262,271.181z"/>
		<path fill="#6173A4" d="M258.586,222.282c-10.686-5.577-25.181-2.149-34.408,8.851c-10.448,12.453-10.182,29.877,0.596,38.918
			c0.481,0.404,0.981,0.773,1.488,1.13C240.68,258.119,251.737,241.53,258.586,222.282z"/>
		
			<ellipse transform="matrix(0.6427 -0.7661 0.7661 0.6427 -143.176 215.1491)" fill="#6173A4" cx="159.081" cy="261.079" rx="14.339" ry="12.408"/>
		<path fill="#6173A4" d="M29.255,214.126c-3.093,10.523-1.903,22.934,4.253,34.142c11.215,20.415,34.628,29.099,52.295,19.394
			c12.237-6.722,18.502-20.503,17.475-35.123c-1.316,0.033-2.637,0.055-3.965,0.055C72.77,232.593,48.967,225.978,29.255,214.126z"
			/>
		<path fill="#7080AC" d="M45.192,193.73c-7.968,4.377-13.396,11.75-15.938,20.396c19.712,11.852,43.515,18.467,70.058,18.467
			c1.328,0,2.648-0.021,3.965-0.055c-0.456-6.487-2.344-13.14-5.79-19.414C86.272,192.708,62.859,184.025,45.192,193.73z"/>
	</g>
	<path fill="none" stroke="#5A4A42" stroke-width="18" stroke-miterlimit="10" d="M137.764,9C77.061,9,9,99.135,9,174.554
		c0,75.42,53.346,128.765,128.764,128.765c75.42,0,128.766-53.345,128.766-128.765C266.529,99.135,198.467,9,137.764,9z"/>
</g>
</svg>
