<?xml version="1.0" encoding="utf-8"?>
<!-- Generator: Adobe Illustrator 16.0.0, SVG Export Plug-In . SVG Version: 6.00 Build 0)  -->
<!DOCTYPE svg PUBLIC "-//W3C//DTD SVG 1.1//EN" "http://www.w3.org/Graphics/SVG/1.1/DTD/svg11.dtd">
<svg version="1.1" id="Layer_1" xmlns="http://www.w3.org/2000/svg" xmlns:xlink="http://www.w3.org/1999/xlink" x="0px" y="0px"
	 width="200.183px" height="55.575px" viewBox="0 0 200.183 55.575" enable-background="new 0 0 200.183 55.575"
	 xml:space="preserve">
<g>
	<g>
		<path fill="#FFFFFF" d="M80.379,30.553v6.41h12.029v6.19H80.379v12.074h-7.419V24.142h20.458v6.411H80.379z"/>
		<path fill="#FFFFFF" d="M126.627,39.598c0,2.352-0.405,4.5-1.217,6.443c-0.812,1.946-1.938,3.61-3.379,4.996
			c-1.442,1.385-3.156,2.456-5.143,3.212c-1.986,0.754-4.141,1.132-6.463,1.132c-2.324,0-4.472-0.378-6.443-1.132
			c-1.974-0.756-3.681-1.827-5.122-3.212c-1.442-1.386-2.567-3.05-3.379-4.996c-0.812-1.943-1.218-4.092-1.218-6.443
			c0-2.378,0.406-4.525,1.218-6.442c0.812-1.918,1.937-3.548,3.379-4.891c1.441-1.344,3.148-2.378,5.122-3.106
			c1.972-0.728,4.119-1.091,6.443-1.091c2.322,0,4.477,0.363,6.463,1.091c1.987,0.729,3.701,1.763,5.143,3.106
			c1.441,1.343,2.567,2.973,3.379,4.891C126.222,35.073,126.627,37.22,126.627,39.598z M118.946,39.598
			c0-1.286-0.21-2.49-0.63-3.609c-0.419-1.119-1-2.077-1.742-2.876c-0.741-0.797-1.636-1.427-2.687-1.889
			c-1.049-0.462-2.203-0.692-3.462-0.692c-1.26,0-2.408,0.23-3.442,0.692c-1.037,0.462-1.932,1.092-2.688,1.889
			c-0.756,0.799-1.337,1.757-1.741,2.876c-0.407,1.119-0.608,2.323-0.608,3.609c0,1.345,0.209,2.581,0.629,3.715
			c0.419,1.134,1,2.105,1.742,2.919c0.741,0.812,1.629,1.447,2.666,1.908c1.035,0.462,2.183,0.694,3.442,0.694
			c1.259,0,2.406-0.232,3.441-0.694c1.035-0.461,1.93-1.097,2.687-1.908c0.756-0.813,1.344-1.785,1.763-2.919
			C118.736,42.179,118.946,40.943,118.946,39.598z"/>
		<path fill="#FFFFFF" d="M176.4,48.22c-0.616,1.507-1.498,2.795-2.643,3.869c-1.146,1.074-2.528,1.913-4.147,2.516
			c-1.618,0.601-3.417,0.902-5.393,0.902c-2.006,0-3.812-0.302-5.415-0.902c-1.605-0.603-2.967-1.441-4.085-2.516
			c-1.116-1.074-1.976-2.362-2.578-3.869c-0.602-1.503-0.901-3.171-0.901-5.006V24.263h7.305v18.35c0,0.833,0.107,1.619,0.322,2.364
			c0.217,0.745,0.545,1.411,0.989,1.998s1.031,1.054,1.763,1.397c0.73,0.343,1.611,0.516,2.643,0.516
			c1.03,0,1.913-0.173,2.644-0.516c0.73-0.344,1.324-0.811,1.782-1.397c0.46-0.587,0.789-1.253,0.989-1.998s0.301-1.531,0.301-2.364
			v-18.35h7.349v18.951C177.324,45.049,177.017,46.717,176.4,48.22z"/>
		<g>
			<path fill="#00B1D9" d="M65.46,55.228V42.233H53.342v12.995h-7.507V24.142h7.507V35.91H65.46V24.142h7.507v31.086H65.46z"/>
		</g>
		<g>
			<path fill="#FFFFFF" d="M145.606,54.25c-1.937,0.883-4.166,1.325-6.69,1.325c-2.301,0-4.425-0.379-6.375-1.136
				s-3.639-1.831-5.07-3.22c-1.431-1.388-2.552-3.049-3.366-4.986c-0.814-1.936-1.221-4.067-1.221-6.395
				c0-2.385,0.415-4.544,1.241-6.479c0.827-1.935,1.971-3.584,3.429-4.944c1.459-1.36,3.17-2.404,5.134-3.135
				c1.963-0.729,4.082-1.094,6.352-1.094c2.104,0,4.173,0.372,6.207,1.115c2.033,0.743,3.682,1.83,4.943,3.262l-2.611,2.609
				c-1.249,1.249-2.97,1.545-3.826,0.657c0,0,0,0-1.094-0.449c-1.094-0.446-2.216-0.672-3.367-0.672
				c-1.262,0-2.418,0.231-3.47,0.694c-1.053,0.463-1.957,1.102-2.715,1.913c-0.757,0.814-1.346,1.775-1.767,2.882
				c-0.42,1.109-0.631,2.322-0.631,3.641c0,1.347,0.211,2.581,0.631,3.702c0.421,1.122,1.003,2.083,1.747,2.883
				c0.743,0.799,1.634,1.424,2.671,1.873c1.039,0.449,2.175,0.672,3.41,0.672c1.43,0,2.678-0.28,3.743-0.842
				c1.066-0.56,1.922-1.29,2.566-2.188l5.007,4.712C149.167,52.167,147.541,53.365,145.606,54.25z"/>
		</g>
		<g>
			<path fill="#FFFFFF" d="M197.809,30.448c-1.212,1.278-2.844,1.692-3.625,0.918c0,0,0,0-0.992-0.462
				c-0.993-0.462-1.952-0.692-2.876-0.692c-0.477,0-0.958,0.042-1.447,0.127c-0.492,0.083-0.934,0.245-1.325,0.481
				c-0.392,0.238-0.72,0.546-0.986,0.924c-0.266,0.379-0.397,0.861-0.397,1.448c0,0.505,0.104,0.924,0.314,1.261
				c0.209,0.335,0.518,0.63,0.923,0.881c0.406,0.251,0.889,0.482,1.449,0.693c0.56,0.209,1.189,0.427,1.889,0.649
				c1.009,0.336,2.058,0.707,3.149,1.113s2.084,0.945,2.981,1.616c0.895,0.672,1.638,1.506,2.225,2.499
				c0.589,0.994,0.883,2.232,0.883,3.717c0,1.707-0.315,3.183-0.945,4.429c-0.63,1.247-1.477,2.273-2.54,3.086
				c-1.063,0.812-2.281,1.414-3.651,1.805c-1.373,0.393-2.787,0.588-4.241,0.588c-2.129,0-4.187-0.37-6.174-1.112
				s-3.639-1.798-4.954-3.17l2.459-2.501c1.234-1.258,3.002-1.546,3.931-0.641c0,0,0,0,1.188,0.602
				c1.191,0.602,2.373,0.901,3.55,0.901c0.53,0,1.049-0.054,1.553-0.167c0.504-0.111,0.944-0.294,1.323-0.546
				c0.378-0.252,0.678-0.587,0.901-1.008c0.225-0.419,0.337-0.923,0.337-1.512c0-0.559-0.14-1.034-0.42-1.427
				s-0.68-0.747-1.197-1.07c-0.519-0.322-1.161-0.615-1.931-0.882s-1.646-0.553-2.624-0.86c-0.952-0.309-1.883-0.672-2.793-1.093
				c-0.909-0.42-1.722-0.958-2.435-1.616c-0.714-0.657-1.288-1.455-1.723-2.393c-0.434-0.938-0.649-2.078-0.649-3.422
				c0-1.652,0.335-3.065,1.007-4.241c0.671-1.175,1.554-2.142,2.645-2.897c1.093-0.756,2.324-1.307,3.695-1.657
				c1.372-0.351,2.757-0.526,4.157-0.526c1.68,0,3.394,0.31,5.143,0.925c1.75,0.616,3.282,1.525,4.599,2.729L197.809,30.448z"/>
		</g>
		<g>
			<path fill="#00B1D9" d="M11.978,36.391c-7.696-9.26,3.767-27.507-0.643-30.744c-1.284-0.942-2.901-1.075-4.134-0.992
				C2.801,8.331,0,13.857,0,20.039c0,11.067,8.971,20.039,20.039,20.039c0.991,0,1.963-0.075,2.916-0.214
				C19.938,40.031,14.773,39.753,11.978,36.391z"/>
			<path fill="#00B1D9" d="M29.007,37.887c-2.917-3.257-2.494-5.856-2.165-7.828c0.565-3.377,1.882-9.128-0.564-11.009
				c-2.052-1.578-4.328-1.883-4.328-1.883s10.092-3.07,13.832,2.071c2.701,3.713,1.305,5.499,1.201,11.495
				c1.958-3.096,3.095-6.762,3.095-10.695C40.078,8.972,31.106,0,20.039,0c-4.155,0-8.014,1.266-11.214,3.43
				c2.771-0.911,6.729-1.53,10.154,0.528c6.006,3.608-1.453,13.881,0.033,26.688c0.748,6.453,4.607,8.372,5.886,8.835
				c1.455-0.361,2.846-0.887,4.155-1.546C29.038,37.917,29.021,37.903,29.007,37.887z"/>
			<path fill="#00B1D9" d="M37.004,32.976c-0.03-0.811-0.034-1.554-0.022-2.244c-1.937,3.063-4.678,5.561-7.929,7.202
				c3.239,3.507,12.563,2.006,12.563,2.006S37.193,37.981,37.004,32.976z"/>
		</g>
	</g>
</g>
</svg>
