<?xml version="1.0" encoding="utf-8"?>
<!-- Generator: Adobe Illustrator 16.0.0, SVG Export Plug-In . SVG Version: 6.00 Build 0)  -->
<!DOCTYPE svg PUBLIC "-//W3C//DTD SVG 1.1//EN" "http://www.w3.org/Graphics/SVG/1.1/DTD/svg11.dtd">
<svg version="1.1" id="Layer_1" xmlns="http://www.w3.org/2000/svg" xmlns:xlink="http://www.w3.org/1999/xlink" x="0px" y="0px"
	 width="200.039px" height="55.534px" viewBox="0 0 200.039 55.534" enable-background="new 0 0 200.039 55.534"
	 xml:space="preserve">
<g>
	<g>
		<path fill="#B3BDC9" d="M80.32,30.531v6.405h12.021v6.187H80.32v12.065h-7.415V24.126H93.35v6.405H80.32z"/>
		<path fill="#B3BDC9" d="M126.537,39.569c0,2.35-0.405,4.497-1.217,6.438c-0.813,1.944-1.937,3.608-3.377,4.993
			c-1.441,1.384-3.153,2.454-5.139,3.208c-1.985,0.755-4.138,1.133-6.459,1.133c-2.322,0-4.468-0.378-6.438-1.133
			c-1.971-0.754-3.678-1.824-5.118-3.208c-1.44-1.385-2.565-3.049-3.376-4.993c-0.812-1.941-1.217-4.089-1.217-6.438
			c0-2.377,0.406-4.522,1.217-6.438c0.811-1.916,1.936-3.546,3.376-4.888c1.44-1.342,3.147-2.376,5.118-3.104
			c1.971-0.727,4.117-1.091,6.438-1.091c2.321,0,4.474,0.364,6.459,1.091c1.986,0.728,3.698,1.762,5.139,3.104
			c1.44,1.342,2.564,2.972,3.377,4.888C126.131,35.047,126.537,37.192,126.537,39.569z M118.861,39.569
			c0-1.285-0.211-2.488-0.631-3.606c-0.418-1.119-0.999-2.076-1.741-2.874c-0.74-0.796-1.634-1.426-2.684-1.887
			c-1.047-0.462-2.201-0.692-3.46-0.692c-1.258,0-2.405,0.23-3.44,0.692c-1.034,0.461-1.929,1.091-2.685,1.887
			c-0.755,0.798-1.336,1.755-1.741,2.874c-0.405,1.118-0.608,2.321-0.608,3.606c0,1.343,0.209,2.58,0.629,3.712
			c0.419,1.134,1,2.105,1.74,2.917c0.741,0.812,1.629,1.446,2.664,1.907c1.035,0.462,2.182,0.693,3.44,0.693
			c1.259,0,2.405-0.231,3.439-0.693c1.035-0.461,1.929-1.096,2.686-1.907c0.756-0.812,1.342-1.783,1.76-2.917
			C118.65,42.149,118.861,40.912,118.861,39.569z"/>
		<path fill="#B3BDC9" d="M176.273,48.187c-0.616,1.503-1.498,2.792-2.642,3.865c-1.146,1.073-2.526,1.911-4.144,2.513
			c-1.618,0.602-3.415,0.902-5.39,0.902c-2.004,0-3.809-0.301-5.411-0.902c-1.604-0.602-2.964-1.439-4.08-2.513
			s-1.976-2.362-2.578-3.865c-0.6-1.503-0.9-3.17-0.9-5.003V24.245h7.3v18.338c0,0.83,0.107,1.618,0.323,2.361
			c0.214,0.745,0.543,1.41,0.986,1.997c0.445,0.587,1.031,1.053,1.763,1.396c0.729,0.344,1.609,0.515,2.64,0.515
			c1.031,0,1.912-0.171,2.642-0.515c0.73-0.344,1.324-0.81,1.782-1.396s0.788-1.252,0.988-1.997
			c0.199-0.743,0.301-1.531,0.301-2.361V24.245h7.343v18.938C177.196,45.017,176.889,46.684,176.273,48.187z"/>
		<g>
			<path fill="#008EAE" d="M65.413,55.188V42.202h-12.11v12.986h-7.501V24.126h7.501v11.758h12.11V24.126h7.502v31.063H65.413z"/>
		</g>
		<g>
			<path fill="#B3BDC9" d="M145.5,54.209c-1.935,0.884-4.164,1.325-6.687,1.325c-2.298,0-4.421-0.379-6.369-1.135
				c-1.948-0.757-3.637-1.83-5.066-3.217s-2.551-3.048-3.363-4.983c-0.813-1.933-1.22-4.063-1.22-6.39
				c0-2.382,0.414-4.541,1.24-6.475s1.97-3.581,3.426-4.94c1.459-1.359,3.168-2.402,5.131-3.133
				c1.962-0.729,4.079-1.093,6.348-1.093c2.103,0,4.17,0.371,6.202,1.114c2.033,0.742,3.68,1.829,4.941,3.259l-2.61,2.608
				c-1.248,1.248-2.968,1.543-3.823,0.656c0,0,0,0-1.093-0.448c-1.094-0.447-2.215-0.673-3.365-0.673
				c-1.261,0-2.417,0.231-3.467,0.694c-1.053,0.462-1.956,1.101-2.713,1.912c-0.757,0.814-1.345,1.774-1.767,2.88
				c-0.42,1.108-0.63,2.319-0.63,3.638c0,1.345,0.21,2.579,0.63,3.699c0.422,1.122,1.003,2.082,1.746,2.881
				c0.742,0.799,1.632,1.423,2.67,1.871c1.037,0.45,2.171,0.673,3.406,0.673c1.429,0,2.676-0.28,3.74-0.842
				c1.066-0.56,1.92-1.289,2.564-2.187l5.004,4.709C149.059,52.129,147.434,53.326,145.5,54.209z"/>
		</g>
		<g>
			<path fill="#B3BDC9" d="M197.667,30.426c-1.212,1.278-2.842,1.69-3.621,0.917c0,0,0,0-0.993-0.462
				c-0.993-0.461-1.95-0.692-2.875-0.692c-0.476,0-0.956,0.043-1.445,0.128c-0.49,0.083-0.933,0.245-1.323,0.481
				c-0.392,0.238-0.721,0.545-0.985,0.923c-0.267,0.378-0.398,0.86-0.398,1.448c0,0.502,0.104,0.922,0.314,1.258
				s0.518,0.631,0.922,0.882c0.407,0.251,0.889,0.481,1.448,0.692c0.56,0.209,1.188,0.426,1.889,0.649
				c1.007,0.337,2.055,0.707,3.146,1.112c1.091,0.405,2.082,0.943,2.979,1.615c0.895,0.671,1.638,1.504,2.224,2.497
				c0.588,0.993,0.882,2.23,0.882,3.712c0,1.707-0.315,3.182-0.944,4.427c-0.629,1.246-1.476,2.272-2.539,3.084
				c-1.063,0.812-2.28,1.413-3.649,1.804c-1.371,0.392-2.782,0.587-4.237,0.587c-2.127,0-4.183-0.37-6.168-1.111
				c-1.986-0.74-3.638-1.796-4.951-3.168l2.456-2.498c1.234-1.257,3.001-1.545,3.928-0.642c0,0,0,0,1.188,0.602
				c1.189,0.602,2.371,0.902,3.547,0.902c0.53,0,1.049-0.055,1.551-0.168c0.505-0.111,0.945-0.294,1.323-0.545
				c0.378-0.252,0.679-0.587,0.901-1.007c0.224-0.419,0.336-0.924,0.336-1.512c0-0.56-0.14-1.033-0.419-1.425
				c-0.281-0.393-0.679-0.748-1.196-1.071c-0.518-0.32-1.162-0.614-1.931-0.881c-0.77-0.266-1.642-0.552-2.622-0.86
				c-0.951-0.307-1.881-0.671-2.79-1.091c-0.908-0.419-1.72-0.957-2.433-1.614c-0.713-0.658-1.287-1.455-1.721-2.392
				s-0.65-2.076-0.65-3.42c0-1.649,0.335-3.062,1.008-4.237c0.67-1.175,1.551-2.14,2.643-2.896c1.09-0.755,2.322-1.307,3.692-1.656
				c1.37-0.351,2.754-0.524,4.153-0.524c1.679,0,3.391,0.308,5.14,0.923c1.748,0.615,3.278,1.524,4.595,2.727L197.667,30.426z"/>
		</g>
		<g>
			<path fill="#008EAE" d="M11.97,36.364c-7.691-9.252,3.764-27.486-0.643-30.721c-1.283-0.942-2.899-1.075-4.131-0.991
				C2.799,8.325,0,13.848,0,20.024c0,11.06,8.965,20.024,20.024,20.024c0.99,0,1.962-0.074,2.914-0.213
				C19.924,40.001,14.762,39.726,11.97,36.364z"/>
			<path fill="#008EAE" d="M28.986,37.86c-2.915-3.255-2.492-5.853-2.162-7.822c0.563-3.375,1.88-9.122-0.565-11.002
				c-2.05-1.577-4.324-1.881-4.324-1.881s10.085-3.068,13.821,2.07c2.699,3.709,1.304,5.496,1.2,11.486
				c1.958-3.093,3.094-6.755,3.094-10.687C40.049,8.965,31.083,0,20.024,0c-4.152,0-8.008,1.265-11.206,3.427
				c2.769-0.91,6.725-1.529,10.146,0.527c6.002,3.606-1.451,13.872,0.033,26.669c0.748,6.447,4.604,8.365,5.882,8.829
				c1.454-0.361,2.843-0.886,4.152-1.546C29.017,37.89,29,37.876,28.986,37.86z"/>
			<path fill="#008EAE" d="M36.978,32.952c-0.031-0.811-0.034-1.553-0.023-2.242c-1.934,3.06-4.674,5.557-7.923,7.196
				c3.236,3.505,12.553,2.004,12.553,2.004S37.166,37.955,36.978,32.952z"/>
		</g>
	</g>
</g>
</svg>
